# xmcd
#
# Track frame offsets:
#	150
#	12675
#	35377
#	55467
#	68582
#	81247
#	93167
#	107557
#	123412
#	137022
#
# Disc length: 1972
#
# Revision: 1
# Processed by: cddbd v1.5.1PL0 Copyright (c) Steve Scherf et al.
# Submitted via: Nero 5.5.9.0
# Normalized: r0:DSETVAR1
#
DISCID=8107b20a
DTITLE=Various Artist - Shades Of Blues 2
DYEAR=1900
DGENRE=
TTITLE0=Ray Charles - Leave My Baby Alone
TTITLE1=B.B. King - Every day I Have The Blues
TTITLE2=Big Joe Turner - Nothin' From Nothin' Blues
TTITLE3=Lena Horne - Love Me Or Leave Me
TTITLE4=Big Maybelle - I Cried For You
TTITLE5=Gatemouth Moore - Did You Ever Love A Woman
TTITLE6=Ray Charles - Blue Is My Middle name
TTITLE7=B.B. King - How Blue Can You Get
TTITLE8=Dinah Washington - Rich Man's Blues
TTITLE9=Ray Charles - A Sentimental Blues
EXTD=
EXTT0=
EXTT1=
EXTT2=
EXTT3=
EXTT4=
EXTT5=
EXTT6=
EXTT7=
EXTT8=
EXTT9=
PLAYORDER=
